<?xml version="1.0" standalone="no"?>
<!DOCTYPE svg PUBLIC "-//W3C//DTD SVG 20010904//EN"
 "http://www.w3.org/TR/2001/REC-SVG-20010904/DTD/svg10.dtd">
<svg version="1.0" xmlns="http://www.w3.org/2000/svg"
 width="225.000000pt" height="225.000000pt" viewBox="0 0 225.000000 225.000000"
 preserveAspectRatio="xMidYMid meet">

<g transform="translate(0.000000,225.000000) scale(0.100000,-0.100000)"
fill="#000000" stroke="none">
<path d="M175 2161 c-48 -22 -69 -44 -90 -94 -13 -32 -15 -150 -15 -944 0
-862 1 -910 19 -949 22 -47 59 -80 110 -95 24 -7 214 -9 562 -7 l526 3 41 28
c55 39 72 78 72 171 l0 76 345 0 c380 0 390 1 420 60 23 44 23 1316 0 1360
-30 59 -40 60 -418 60 l-344 0 -2 112 c-2 131 -14 163 -73 205 l-41 28 -536 2
c-503 3 -538 2 -576 -16z m682 -67 c-3 -3 -12 -4 -19 -1 -8 3 -5 6 6 6 11 1
17 -2 13 -5z m388 -1 c-11 -3 -27 -10 -35 -17 -13 -10 -13 -9 -1 7 7 9 23 16
35 16 20 -1 20 -2 1 -6z m-958 -9 c-3 -3 -12 -4 -19 -1 -8 3 -5 6 6 6 11 1 17
-2 13 -5z m560 -26 c-3 -8 -6 -5 -6 6 -1 11 2 17 5 13 3 -3 4 -12 1 -19z m306
15 c-7 -2 -19 -2 -25 0 -7 3 -2 5 12 5 14 0 19 -2 13 -5z m107 3 c0 -2 -7 -7
-16 -10 -8 -3 -12 -2 -9 4 6 10 25 14 25 6z m-980 -30 c0 -3 -4 -8 -10 -11 -5
-3 -10 -1 -10 4 0 6 5 11 10 11 6 0 10 -2 10 -4z m667 -2 c-3 -3 -12 -4 -19
-1 -8 3 -5 6 6 6 11 1 17 -2 13 -5z m-783 -20 c3 -8 2 -12 -4 -9 -6 3 -10 10
-10 16 0 14 7 11 14 -7z m86 2 c0 -2 -8 -10 -17 -17 -16 -13 -17 -12 -4 4 13
16 21 21 21 13z m375 -36 c3 -5 2 -10 -4 -10 -5 0 -13 5 -16 10 -3 6 -2 10 4
10 5 0 13 -4 16 -10z m245 0 c-8 -5 -19 -10 -25 -10 -5 0 -3 5 5 10 8 5 20 10
25 10 6 0 3 -5 -5 -10z m-699 -23 c-10 -9 -11 -8 -5 6 3 10 9 15 12 12 3 -3 0
-11 -7 -18z m379 -32 l42 -35 147 0 147 0 41 35 c41 35 41 35 140 35 54 0 103
-4 109 -8 7 -4 14 -35 15 -70 l4 -62 -273 0 c-300 0 -318 -3 -347 -60 -12 -23
-15 -73 -15 -260 l0 -230 -105 -87 c-58 -47 -105 -94 -105 -103 0 -8 47 -55
105 -103 l104 -88 3 -244 3 -245 28 -27 27 -28 289 -3 288 -3 -5 -27 c-3 -15
-10 -30 -16 -34 -18 -12 -854 -10 -877 2 -19 10 -19 30 -19 833 0 627 3 826
12 835 8 8 48 12 114 12 102 0 102 0 144 -35z m1548 -187 c17 -17 17 -1299 0
-1316 -9 -9 -184 -12 -724 -12 -634 0 -714 2 -728 16 -14 13 -16 51 -16 257
l0 242 -90 73 c-50 40 -90 77 -90 82 0 4 41 41 90 81 l90 73 0 242 c0 207 2
245 16 258 14 14 94 16 728 16 540 0 715 -3 724 -12z m-1921 -1440 c-3 -8 -6
-5 -6 6 -1 11 2 17 5 13 3 -3 4 -12 1 -19z m18 -28 c3 -5 1 -10 -4 -10 -6 0
-11 5 -11 10 0 6 2 10 4 10 3 0 8 -4 11 -10z m25 -45 c0 -8 -4 -15 -10 -15 -5
0 -7 7 -4 15 4 8 8 15 10 15 2 0 4 -7 4 -15z m-45 -27 c6 -4 2 -8 -7 -8 -10 0
-18 7 -18 17 0 9 3 12 8 7 4 -5 12 -12 17 -16z m1128 -22 c-23 -32 -35 -33
-20 -2 7 13 15 22 19 20 5 -3 8 0 8 7 0 7 3 10 6 6 3 -3 -2 -17 -13 -31z
m-1003 14 c11 -8 7 -9 -15 -4 -37 8 -45 14 -19 14 10 0 26 -5 34 -10z m788 -7
c-10 -2 -26 -2 -35 0 -10 3 -2 5 17 5 19 0 27 -2 18 -5z m65 0 c-7 -2 -19 -2
-25 0 -7 3 -2 5 12 5 14 0 19 -2 13 -5z m94 -39 c-3 -3 -12 -4 -19 -1 -8 3 -5
6 6 6 11 1 17 -2 13 -5z"/>
<path d="M362 1888 c-17 -17 -15 -103 3 -118 25 -21 50 -8 53 28 3 28 7 32 32
32 34 0 44 12 36 46 -6 22 -12 24 -59 24 -29 0 -58 -5 -65 -12z"/>
<path d="M362 478 c-17 -17 -16 -103 2 -117 8 -7 37 -11 68 -9 52 3 53 4 53
33 0 26 -4 30 -32 33 -28 3 -32 7 -35 35 -3 35 -33 48 -56 25z"/>
<path d="M1136 1675 c-17 -18 -17 -18 38 -138 20 -43 36 -80 36 -81 0 -2 -30
-21 -66 -42 -119 -70 -203 -191 -224 -324 -5 -36 -10 -138 -10 -227 0 -148 -2
-163 -17 -163 -22 -1 -57 -28 -72 -57 -20 -38 -13 -80 18 -115 l29 -33 502 0
502 0 29 33 c41 45 41 102 0 143 -16 16 -39 29 -50 29 -20 0 -21 4 -21 183 0
204 -10 261 -62 358 -37 70 -116 147 -186 183 -29 15 -52 28 -52 30 0 2 20 47
45 100 67 142 77 136 -200 136 -188 0 -226 -2 -239 -15z m219 -297 c11 -16 18
-19 23 -11 9 14 62 29 62 17 0 -5 -5 -16 -10 -24 -9 -13 -11 -13 -20 0 -8 12
-12 13 -19 2 -5 -9 -22 -12 -42 -10 -25 2 -34 -1 -34 -12 0 -23 -42 -73 -55
-65 -6 4 -24 10 -40 15 -23 7 -28 5 -23 -6 3 -8 14 -14 24 -14 12 0 19 -7 19
-20 0 -13 -7 -20 -20 -20 -16 0 -20 -7 -20 -32 l0 -32 16 23 c9 12 36 31 60
41 46 20 60 36 22 25 l-23 -6 22 19 c12 11 19 22 16 26 -4 3 0 6 8 6 11 0 14
-9 11 -34 -3 -29 -9 -35 -42 -46 -22 -7 -51 -26 -66 -41 -21 -22 -37 -29 -66
-29 l-38 0 -1 48 c0 35 -3 42 -9 27 -5 -11 -9 -37 -9 -57 -1 -32 2 -38 19 -38
12 0 20 -7 21 -17 0 -15 2 -15 8 2 7 17 9 16 15 -12 4 -18 11 -33 16 -33 5 0
12 -10 15 -22 4 -13 17 -34 29 -47 16 -19 17 -23 4 -18 -10 4 -18 -1 -21 -14
-6 -22 5 -24 33 -6 14 8 23 9 28 2 4 -5 25 -12 47 -14 22 -1 43 -8 46 -13 4
-6 12 -7 18 -3 18 10 79 -22 86 -46 5 -13 1 -27 -8 -36 -18 -18 -44 -8 -28 11
7 8 0 10 -30 8 -21 -2 -42 -8 -45 -13 -10 -17 -40 -9 -61 15 -12 13 -19 27
-16 30 8 8 -45 19 -61 13 -9 -4 -16 1 -18 10 -3 13 -6 13 -25 -3 -21 -17 -21
-23 -12 -66 6 -27 15 -48 20 -48 5 0 4 11 -1 26 -13 33 -13 54 0 54 6 0 10
-15 10 -33 0 -23 8 -41 25 -57 18 -17 23 -29 18 -48 -5 -21 -3 -23 15 -18 15
5 24 1 33 -16 17 -32 32 -45 47 -40 6 2 15 -3 18 -12 3 -9 9 -14 14 -11 4 2 5
-7 2 -21 -4 -21 -1 -25 14 -22 14 3 18 11 17 31 -1 15 2 27 8 27 5 0 9 -4 9
-8 0 -5 7 -9 15 -9 8 0 15 4 15 9 0 5 -7 11 -15 14 -9 4 -15 19 -15 36 0 22 4
29 15 25 8 -4 17 -2 20 3 4 6 11 10 18 10 6 0 2 -6 -9 -14 -11 -8 -15 -18 -10
-23 5 -4 11 -2 13 5 3 6 12 12 20 12 9 0 13 6 10 14 -3 8 2 21 12 30 15 14 18
14 18 1 0 -8 -4 -12 -8 -9 -4 2 -10 0 -13 -4 -3 -5 7 -15 22 -23 15 -8 31 -20
35 -26 4 -7 17 -17 27 -23 17 -9 20 -7 20 15 0 20 -5 25 -24 25 -21 0 -24 5
-28 48 -2 26 -1 63 2 82 5 26 1 47 -18 82 -27 52 -63 71 -157 83 -27 4 -53 9
-57 11 -13 8 4 34 23 34 13 0 19 7 19 21 0 19 5 21 44 18 54 -5 52 15 -2 29
-20 6 -29 10 -20 11 36 2 68 -19 87 -59 15 -32 17 -40 6 -36 -8 3 -15 1 -15
-4 0 -6 -10 -10 -22 -10 -27 0 -21 -5 17 -14 22 -5 26 -4 15 4 -12 8 -11 10 6
10 28 0 36 -10 23 -27 -7 -8 -8 -13 -1 -13 5 0 25 -21 42 -47 18 -27 29 -39
25 -28 -16 41 -21 136 -8 153 15 20 17 36 3 27 -5 -3 -10 3 -10 14 0 12 -15
38 -34 59 -34 37 -34 38 -14 51 18 11 20 11 15 -2 -4 -10 2 -17 15 -20 14 -4
19 -11 14 -22 -3 -10 -2 -14 5 -10 6 4 19 -1 30 -11 15 -13 19 -14 19 -3 0 19
-12 34 -32 42 -23 8 -25 85 -3 93 8 4 12 10 9 15 -3 5 2 9 11 9 9 0 40 -22 68
-50 28 -27 46 -50 39 -50 -7 0 -12 -8 -11 -17 4 -47 0 -53 -41 -53 -37 0 -39
-2 -46 -35 -3 -19 -12 -35 -19 -35 -7 0 -15 -7 -19 -15 -3 -8 -1 -15 4 -15 14
0 40 30 40 46 0 10 12 14 39 14 34 0 39 3 47 32 5 17 14 33 20 35 12 4 34 -39
33 -65 0 -9 -7 -1 -14 18 l-14 35 6 -40 c7 -50 13 -61 25 -44 5 9 8 -68 6
-198 -2 -233 -4 -227 59 -253 15 -6 21 -16 18 -30 -4 -23 5 -26 25 -8 12 11
12 10 1 -4 -11 -15 -37 -17 -212 -18 -172 0 -199 2 -199 15 0 8 -7 15 -15 15
-8 0 -15 -7 -15 -15 0 -12 -18 -15 -105 -15 -91 0 -105 2 -105 17 0 15 -1 15
-19 -1 -15 -14 -36 -16 -122 -14 -82 2 -103 6 -101 17 2 9 -3 11 -13 7 -9 -3
-21 -6 -26 -6 -6 0 -7 -5 -3 -11 4 -7 1 -10 -6 -7 -20 6 -24 28 -6 28 9 0 16
7 16 15 0 8 5 15 12 15 21 0 58 43 58 66 0 24 16 41 28 29 3 -3 0 -10 -8 -15
-11 -7 -12 -12 -3 -21 17 -17 34 48 24 91 -5 19 -9 30 -10 24 -1 -5 -8 -19
-16 -30 -13 -17 -14 -8 -15 89 0 100 1 107 20 107 16 0 20 7 20 34 0 19 -3 43
-7 53 -6 13 -11 6 -20 -32 l-12 -50 6 75 c5 72 35 160 54 160 5 0 9 8 9 17 0
9 23 39 51 65 39 36 57 47 72 42 11 -3 17 -2 14 3 -11 17 9 32 63 47 73 20 76
19 95 -6z m38 15 c-7 -2 -19 -2 -25 0 -7 3 -2 5 12 5 14 0 19 -2 13 -5z m130
-20 c4 -2 4 -9 1 -15 -4 -7 -2 -8 4 -4 15 9 54 -12 47 -25 -4 -5 -16 -9 -28
-9 -18 0 -19 2 -7 11 13 9 13 10 0 6 -8 -2 -17 -12 -18 -21 -3 -14 1 -17 20
-11 22 6 22 5 3 -6 -11 -7 -23 -17 -27 -23 -6 -8 -11 -7 -17 3 -6 10 -17 11
-37 6 l-29 -8 24 -6 c36 -10 39 -32 4 -27 -15 2 -20 1 -10 -1 20 -5 23 -23 4
-23 -7 0 -22 7 -33 15 -16 12 -17 16 -5 24 12 8 11 13 -10 30 -13 11 -34 20
-46 21 -26 0 -31 15 -7 24 10 4 13 2 8 -7 -4 -6 2 -3 15 7 16 15 24 17 33 8
13 -13 29 -16 27 -4 -4 21 3 32 19 32 15 0 15 2 2 11 -11 7 -6 8 20 3 19 -3
38 -8 43 -11z m-163 -239 c0 -20 -45 -64 -65 -64 -8 0 -16 4 -19 9 -9 14 5 41
21 41 8 0 12 4 9 9 -7 10 9 19 37 20 9 1 17 -6 17 -15z m-170 -14 c0 -5 -2
-10 -4 -10 -3 0 -8 5 -11 10 -3 6 -1 10 4 10 6 0 11 -4 11 -10z m216 -275 c14
-13 12 -16 -12 -25 -31 -12 -48 -2 -38 23 8 21 31 22 50 2z m-76 -11 c0 -2 -7
-4 -15 -4 -8 0 -15 4 -15 10 0 5 7 7 15 4 8 -4 15 -8 15 -10z m-30 -89 c19 -7
29 -14 23 -14 -7 -1 -13 -6 -13 -12 0 -5 5 -7 10 -4 6 3 10 1 10 -4 0 -17 -20
-13 -26 4 -4 9 -18 22 -33 30 -33 18 -17 18 29 0z"/>
<path d="M1276 1370 c7 -7 19 -7 35 -1 23 9 22 10 -10 10 -24 1 -32 -2 -25 -9z"/>
<path d="M1160 1320 c0 -5 5 -10 10 -10 6 0 10 5 10 10 0 6 -4 10 -10 10 -5 0
-10 -4 -10 -10z"/>
<path d="M1147 1299 c7 -7 15 -10 18 -7 3 3 -2 9 -12 12 -14 6 -15 5 -6 -5z"/>
<path d="M1115 1289 c-4 -6 -5 -12 -2 -15 2 -3 7 2 10 11 7 17 1 20 -8 4z"/>
<path d="M1636 1255 c4 -8 11 -15 16 -15 6 0 5 6 -2 15 -7 8 -14 15 -16 15 -2
0 -1 -7 2 -15z"/>
<path d="M1088 1246 c-19 -14 -23 -26 -10 -26 4 0 13 9 20 20 14 23 13 24 -10
6z"/>
<path d="M1607 1243 c-4 -3 -7 -11 -7 -17 0 -6 5 -5 12 2 6 6 9 14 7 17 -3 3
-9 2 -12 -2z"/>
<path d="M1660 1225 c-8 -9 -8 -15 -2 -15 12 0 26 19 19 26 -2 2 -10 -2 -17
-11z"/>
<path d="M1563 1140 c1 -20 12 -26 20 -12 3 4 -1 13 -8 19 -11 10 -13 9 -12
-7z"/>
<path d="M1011 1125 c1 -19 18 -51 18 -35 0 8 -4 22 -9 30 -5 8 -9 11 -9 5z"/>
<path d="M1098 1090 c-34 -32 -35 -40 -3 -40 18 0 26 7 31 25 9 38 1 42 -28
15z"/>
<path d="M1682 1080 c0 -14 2 -19 5 -12 2 6 2 18 0 25 -3 6 -5 1 -5 -13z"/>
<path d="M1440 1069 c0 -5 5 -7 10 -4 6 3 10 8 10 11 0 2 -4 4 -10 4 -5 0 -10
-5 -10 -11z"/>
<path d="M1700 916 c0 -90 -3 -178 -7 -196 -4 -24 -3 -32 6 -29 10 4 13 54 14
197 1 106 -1 192 -5 192 -5 0 -8 -74 -8 -164z"/>
<path d="M1368 1043 c7 -3 16 -2 19 1 4 3 -2 6 -13 5 -11 0 -14 -3 -6 -6z"/>
<path d="M1720 988 c0 -45 3 -59 10 -48 13 20 13 110 0 110 -6 0 -10 -27 -10
-62z"/>
<path d="M1040 950 c0 -23 10 -26 28 -8 18 18 15 28 -8 28 -13 0 -20 -7 -20
-20z"/>
<path d="M1571 942 c7 -19 6 -38 -1 -56 -8 -22 -6 -31 10 -48 16 -18 20 -19
20 -5 0 8 -5 19 -11 23 -6 4 -9 19 -5 36 7 33 -2 78 -15 78 -4 0 -4 -13 2 -28z"/>
<path d="M1272 941 c-17 -11 7 -21 48 -21 16 0 32 -4 35 -10 3 -5 11 -10 18
-10 6 0 4 7 -6 17 -10 10 -31 17 -53 16 -25 -1 -33 2 -23 8 8 5 10 9 4 9 -5 0
-16 -4 -23 -9z"/>
<path d="M1002 875 c1 -69 1 -69 8 -20 4 28 3 59 -1 70 -5 12 -7 -6 -7 -50z"/>
<path d="M1092 918 c-18 -18 -15 -28 8 -28 28 0 25 -24 -5 -44 -14 -9 -25 -21
-25 -26 0 -6 11 -10 25 -10 18 0 25 5 25 19 0 26 17 36 23 14 3 -10 5 -3 6 15
1 22 -4 32 -14 32 -8 0 -15 9 -15 20 0 23 -10 26 -28 8z"/>
<path d="M1410 908 c19 -12 38 -27 42 -33 5 -6 8 -6 8 2 0 11 -60 53 -76 53
-5 0 7 -10 26 -22z"/>
<path d="M1597 901 c-7 -27 0 -31 45 -31 34 0 38 3 38 25 0 22 -4 25 -39 25
-30 0 -40 -4 -44 -19z"/>
<path d="M1308 903 c6 -2 18 -2 25 0 6 3 1 5 -13 5 -14 0 -19 -2 -12 -5z"/>
<path d="M1365 890 c-18 -8 -17 -9 8 -9 15 -1 27 4 27 9 0 12 -8 12 -35 0z"/>
<path d="M1720 793 c0 -36 4 -63 10 -63 13 0 13 90 0 110 -7 11 -10 -3 -10
-47z"/>
<path d="M1558 813 c7 -3 16 -2 19 1 4 3 -2 6 -13 5 -11 0 -14 -3 -6 -6z"/>
<path d="M1040 800 c0 -5 5 -10 10 -10 6 0 10 5 10 10 0 6 -4 10 -10 10 -5 0
-10 -4 -10 -10z"/>
<path d="M1202 754 c-1 -25 3 -44 9 -44 6 0 8 9 4 20 -4 12 -2 27 4 34 8 10 8
16 -2 24 -10 9 -13 2 -15 -34z"/>
<path d="M1040 710 c0 -23 10 -26 28 -8 18 18 15 28 -8 28 -13 0 -20 -7 -20
-20z"/>
<path d="M1420 718 c0 -9 5 -20 10 -23 13 -8 13 5 0 25 -8 13 -10 13 -10 -2z"/>
<path d="M1092 678 c-18 -18 -15 -28 8 -28 14 0 20 -7 20 -21 0 -25 33 -22 38
4 2 12 -3 17 -17 17 -14 0 -21 6 -21 20 0 23 -10 26 -28 8z"/>
<path d="M995 660 c-3 -5 -1 -10 4 -10 6 0 11 5 11 10 0 6 -2 10 -4 10 -3 0
-8 -4 -11 -10z"/>
<path d="M1180 660 c0 -5 5 -10 10 -10 6 0 10 5 10 10 0 6 -4 10 -10 10 -5 0
-10 -4 -10 -10z"/>
<path d="M1600 640 c0 -5 18 -10 40 -10 22 0 40 5 40 10 0 6 -18 10 -40 10
-22 0 -40 -4 -40 -10z"/>
<path d="M1770 620 c13 -9 13 -11 0 -20 -13 -8 -13 -10 1 -10 22 0 32 27 13
34 -24 9 -31 7 -14 -4z"/>
<path d="M1390 1320 c0 -5 5 -10 11 -10 5 0 7 5 4 10 -3 6 -8 10 -11 10 -2 0
-4 -4 -4 -10z"/>
<path d="M1415 1300 c-3 -5 -1 -10 4 -10 6 0 11 5 11 10 0 6 -2 10 -4 10 -3 0
-8 -4 -11 -10z"/>
<path d="M1440 1300 c0 -5 5 -10 10 -10 6 0 10 5 10 10 0 6 -4 10 -10 10 -5 0
-10 -4 -10 -10z"/>
<path d="M1328 1133 c7 -3 16 -2 19 1 4 3 -2 6 -13 5 -11 0 -14 -3 -6 -6z"/>
</g>
</svg>
